<?xml version="1.0" encoding="utf-8"?>
<!-- Generator: Adobe Illustrator 19.0.0, SVG Export Plug-In . SVG Version: 6.00 Build 0)  -->
<svg version="1.1" id="Layer_1" xmlns="http://www.w3.org/2000/svg" xmlns:xlink="http://www.w3.org/1999/xlink" x="0px" y="0px"
	 viewBox="0 0 612 173" style="enable-background:new 0 0 612 173;" xml:space="preserve">
<style type="text/css">
	.st0{fill:url(#XMLID_94_);}
	.st1{fill:#CAC9C9;}
	.st2{fill:url(#XMLID_95_);}
	.st3{fill:url(#XMLID_96_);}
	.st4{fill:url(#XMLID_97_);}
	.st5{fill:url(#XMLID_98_);}
	.st6{fill:url(#XMLID_99_);}
	.st7{fill:url(#XMLID_100_);}
	.st8{fill:url(#XMLID_101_);}
	.st9{fill:#2A3586;}
	.st10{fill:#00A0A0;}
</style>
<g id="XMLID_5_">
	<g id="XMLID_9_">
		
			<linearGradient id="XMLID_94_" gradientUnits="userSpaceOnUse" x1="99.6418" y1="34.9957" x2="56.9283" y2="136.2467" gradientTransform="matrix(0.9985 5.410000e-002 -5.410000e-002 0.9985 6.7058 -10.5211)">
			<stop  offset="0" style="stop-color:#2D1852"/>
			<stop  offset="0.1215" style="stop-color:#2F2A62"/>
			<stop  offset="0.5691" style="stop-color:#0463AD"/>
			<stop  offset="0.6436" style="stop-color:#125DA4"/>
			<stop  offset="0.7442" style="stop-color:#235092"/>
			<stop  offset="0.8596" style="stop-color:#2D3B76"/>
			<stop  offset="0.9851" style="stop-color:#2E1D55"/>
			<stop  offset="1" style="stop-color:#2D1852"/>
		</linearGradient>
		<path id="XMLID_24_" class="st0" d="M85.7,10.4C50.9,8.5,21,34.5,17.7,68.9C20,52.7,34.3,40.7,50.9,41.6c17.5,0.9,31,15.9,30,33.5
			c-0.9,17.5-15.9,31-33.5,30c-16.6-0.9-29.5-14.4-30.1-30.7C17,108.9,43.9,138,78.7,139.9c35.8,1.9,66.3-25.5,68.3-61.2
			C148.9,42.9,121.5,12.3,85.7,10.4z"/>
		<g id="XMLID_20_">
			<path id="XMLID_23_" class="st1" d="M70.9,23.7C43.5,22.2,20,42.8,17.6,69.9C19.4,53.2,34,40.7,51,41.6c17.5,0.9,31,15.9,30,33.5
				c-0.9,17.5-15.9,31-33.5,30c-17-0.9-30.1-15-30.1-31.7c-0.6,27.2,20.6,50.2,48,51.7c28,1.5,51.9-19.9,53.4-47.9
				C120.3,49.1,98.9,25.2,70.9,23.7z"/>
			<path id="XMLID_22_" class="st1" d="M17.4,73c0,0,0-0.1,0-0.1C17.4,72.9,17.4,73,17.4,73z"/>
			<path id="XMLID_21_" class="st1" d="M17.6,70.3c0,0,0,0.1,0,0.1C17.6,70.3,17.6,70.3,17.6,70.3z"/>
		</g>
		<g id="XMLID_17_">
			
				<linearGradient id="XMLID_95_" gradientUnits="userSpaceOnUse" x1="33.6035" y1="62.5787" x2="82.071" y2="109.2757" gradientTransform="matrix(0.9985 5.410000e-002 -5.410000e-002 0.9985 6.7058 -10.5211)">
				<stop  offset="0" style="stop-color:#2D1852"/>
				<stop  offset="6.189194e-002" style="stop-color:#2F2860"/>
				<stop  offset="0.1908" style="stop-color:#2B417E"/>
				<stop  offset="0.314" style="stop-color:#205395"/>
				<stop  offset="0.4278" style="stop-color:#105EA5"/>
				<stop  offset="0.5232" style="stop-color:#0463AD"/>
				<stop  offset="0.74" style="stop-color:#2B4380"/>
				<stop  offset="1" style="stop-color:#2D1852"/>
			</linearGradient>
			<path id="XMLID_19_" class="st2" d="M118.4,80.2c0,0.2-0.1,0.5-0.1,0.7c0,0.3-0.1,0.7-0.1,1c0,0.3-0.1,0.5-0.1,0.8
				c-0.1,0.4-0.1,0.8-0.2,1.2c0,0.2-0.1,0.4-0.1,0.5c-0.2,1.2-0.5,2.4-0.9,3.5c0,0.2-0.1,0.3-0.1,0.5c-0.1,0.2-0.1,0.4-0.2,0.6
				c-0.1,0.2-0.1,0.4-0.2,0.6c-0.1,0.3-0.2,0.5-0.3,0.8c-0.1,0.3-0.2,0.5-0.3,0.8c-0.2,0.5-0.4,1.1-0.6,1.6
				c-0.2,0.5-0.4,1.1-0.7,1.6c-0.1,0.2-0.2,0.4-0.3,0.7c-0.1,0.3-0.3,0.6-0.4,0.9c-0.1,0.3-0.2,0.5-0.4,0.8
				c-0.1,0.3-0.3,0.5-0.4,0.8c-0.1,0.3-0.3,0.5-0.4,0.8c-0.8,1.5-1.7,2.9-2.6,4.3c-0.1,0.2-0.3,0.4-0.5,0.7
				c-0.8,1.2-1.7,2.3-2.6,3.4c-0.2,0.2-0.4,0.4-0.5,0.6c-0.2,0.2-0.4,0.5-0.6,0.7c-0.2,0.2-0.3,0.3-0.5,0.5
				c-0.4,0.5-0.9,0.9-1.3,1.4c-0.2,0.2-0.5,0.5-0.7,0.7c-0.8,0.8-1.7,1.6-2.5,2.3c-0.2,0.2-0.5,0.4-0.7,0.6c-1,0.8-2.1,1.7-3.2,2.4
				c-0.2,0.1-0.4,0.3-0.6,0.4c-0.3,0.2-0.6,0.4-0.9,0.6c-0.3,0.2-0.5,0.3-0.8,0.5c-0.2,0.1-0.3,0.2-0.4,0.3
				c-0.2,0.1-0.3,0.2-0.5,0.3c-0.1,0.1-0.2,0.1-0.3,0.2c-0.4,0.2-0.9,0.5-1.3,0.7c-1.4,0.8-2.9,1.5-4.4,2.1
				c-0.3,0.1-0.6,0.3-0.9,0.4c-0.5,0.2-1,0.4-1.5,0.6c-0.4,0.2-0.8,0.3-1.2,0.4c-0.6,0.2-1.2,0.4-1.9,0.6c-0.3,0.1-0.6,0.2-0.9,0.3
				c-0.1,0-0.3,0.1-0.4,0.1c-0.1,0-0.2,0-0.3,0.1c-0.1,0-0.2,0-0.3,0.1c-0.3,0.1-0.7,0.2-1,0.2c-0.1,0-0.2,0-0.3,0.1
				c-0.7,0.1-1.3,0.3-2,0.4c-0.3,0-0.5,0.1-0.8,0.1c-0.5,0.1-1,0.2-1.5,0.2c-0.4,0-0.8,0.1-1.2,0.1c-0.4,0-0.8,0.1-1.1,0.1
				c-0.5,0-1,0.1-1.6,0.1c-0.3,0-0.5,0-0.8,0c-0.6,0-1.3,0-1.9,0c-0.1,0-0.3,0-0.4,0c-0.8,0-1.5,0-2.3-0.1l-0.1,0
				c-0.8,0-1.6-0.1-2.3-0.2c-0.1,0-0.3,0-0.4,0c-0.6-0.1-1.3-0.2-1.9-0.3c-0.3,0-0.5-0.1-0.8-0.1c-0.5-0.1-1-0.2-1.5-0.3
				c-0.4-0.1-0.8-0.1-1.1-0.2c-0.4-0.1-0.8-0.2-1.2-0.3c-0.5-0.1-1-0.3-1.5-0.4c-0.3-0.1-0.5-0.1-0.8-0.2c-0.6-0.2-1.3-0.4-1.9-0.6
				c-0.1,0-0.2-0.1-0.3-0.1c-0.3-0.1-0.6-0.2-1-0.3c-0.1,0-0.2-0.1-0.3-0.1c-0.1,0-0.2-0.1-0.2-0.1c-0.1-0.1-0.2-0.1-0.4-0.1
				c-0.3-0.1-0.6-0.2-0.9-0.4c-0.6-0.2-1.2-0.5-1.8-0.8c-0.4-0.2-0.9-0.4-1.3-0.6c-0.4-0.2-0.9-0.4-1.3-0.7
				c-0.3-0.2-0.6-0.3-0.9-0.5c-0.7-0.4-1.4-0.8-2.1-1.2c-0.2-0.1-0.4-0.3-0.7-0.4c-0.3-0.2-0.5-0.3-0.8-0.5
				c-0.7-0.5-1.4-0.9-2.1-1.4c-0.8-0.6-1.6-1.2-2.4-1.9c-0.2-0.2-0.4-0.3-0.5-0.5c-0.3-0.2-0.6-0.5-0.8-0.7
				c-0.2-0.2-0.5-0.4-0.7-0.6c-0.3-0.2-0.5-0.5-0.7-0.7c-0.2-0.2-0.4-0.4-0.6-0.6c-0.2-0.2-0.5-0.5-0.7-0.7
				c-1.1-1.2-2.1-2.4-3.1-3.6c-0.2-0.3-0.4-0.5-0.6-0.8c-0.2-0.3-0.4-0.5-0.6-0.8c-0.2-0.3-0.4-0.5-0.6-0.8
				c-0.2-0.3-0.4-0.5-0.5-0.8c-0.2-0.3-0.4-0.5-0.5-0.8c-0.7-1.1-1.3-2.2-2-3.3c-0.2-0.3-0.3-0.6-0.5-0.9c-0.1-0.2-0.2-0.4-0.3-0.6
				c-0.6-1.2-1.1-2.3-1.6-3.5c-0.1-0.3-0.2-0.5-0.3-0.8c-0.1-0.3-0.2-0.5-0.3-0.8c-0.6-1.7-1.2-3.4-1.6-5.1c-0.1-0.3-0.2-0.6-0.2-1
				c-0.1-0.3-0.2-0.7-0.2-1c-0.1-0.3-0.1-0.6-0.2-0.9c-0.1-0.3-0.1-0.7-0.2-1c-0.2-1.2-0.4-2.5-0.5-3.7c0-0.2,0-0.4,0-0.6
				c0-0.2,0-0.5-0.1-0.7c0-0.3,0-0.5,0-0.8c0-0.2,0-0.3,0-0.5c0-0.6,0-1.2-0.1-1.8c0-1.1,0-2.2,0.1-3.3c0.1-1.1,0.2-2.2,0.3-3.3
				c2.5-15.9,16.7-27.6,33.1-26.7c7.1,0.4,13.5,3.1,18.6,7.3C61.4,54,55.8,63,55.3,73.4c-0.6,10.4,4,20,11.4,26.2
				c5.1,4.2,11.5,6.9,18.6,7.3C101.7,107.8,115.9,96,118.4,80.2z"/>
			
				<radialGradient id="XMLID_96_" cx="65.9371" cy="71.7237" r="46.1991" gradientTransform="matrix(0.9985 5.410000e-002 -5.410000e-002 0.9985 6.7058 -10.5211)" gradientUnits="userSpaceOnUse">
				<stop  offset="0" style="stop-color:#00A6AD"/>
				<stop  offset="1.856940e-002" style="stop-color:#00A8AD"/>
				<stop  offset="0.3289" style="stop-color:#00B9AB"/>
				<stop  offset="0.4455" style="stop-color:#00A4AC"/>
				<stop  offset="0.7139" style="stop-color:#007BAA"/>
				<stop  offset="0.9053" style="stop-color:#0063A6"/>
				<stop  offset="1" style="stop-color:#035AA4"/>
			</radialGradient>
			<path id="XMLID_18_" class="st3" d="M118.7,76.9c-0.1,1.1-0.2,2.2-0.3,3.3c-2.5,15.9-16.7,27.6-33.1,26.7
				c-7.1-0.4-13.5-3.1-18.6-7.3c8.1-5.4,13.6-14.4,14.2-24.8c0.6-10.4-4-20-11.4-26.2c-5.1-4.2-11.5-6.9-18.6-7.3
				c-16.4-0.9-30.6,10.8-33.1,26.7C19.9,50.4,30.9,35.8,46,28.4c0,0,0.1,0,0.1-0.1c0.5-0.2,0.9-0.4,1.4-0.7c0.3-0.1,0.6-0.3,0.9-0.4
				c0.9-0.4,1.7-0.7,2.6-1c0.3-0.1,0.6-0.2,0.9-0.3c0.1,0,0.2-0.1,0.3-0.1c0.6-0.2,1.1-0.4,1.7-0.5c0.3-0.1,0.6-0.2,0.9-0.3
				c0.1,0,0.3-0.1,0.4-0.1c0.5-0.1,1-0.3,1.5-0.4l0.3-0.1c0.7-0.1,1.3-0.3,2-0.4c0.3,0,0.5-0.1,0.8-0.1c0.5-0.1,1-0.2,1.5-0.2
				c0.4-0.1,0.8-0.1,1.2-0.1c0.4,0,0.8-0.1,1.1-0.1c0.5,0,1-0.1,1.6-0.1c0.3,0,0.5,0,0.8,0c0.6,0,1.3,0,1.9,0c0.1,0,0.3,0,0.4,0
				c0.8,0,1.5,0,2.3,0.1l0.1,0c0.8,0,1.6,0.1,2.3,0.2c0.1,0,0.3,0,0.4,0c0.6,0.1,1.3,0.2,1.9,0.3c0.3,0,0.5,0.1,0.8,0.1
				c0.5,0.1,1,0.2,1.5,0.3c0.4,0.1,0.8,0.1,1.1,0.2c0.4,0.1,0.8,0.2,1.2,0.3c0.5,0.1,1,0.3,1.5,0.4c0.3,0.1,0.5,0.1,0.8,0.2
				c0.6,0.2,1.3,0.4,1.9,0.6l0.3,0.1c0.5,0.2,1,0.3,1.5,0.5c0.1,0,0.2,0.1,0.4,0.1c0.3,0.1,0.6,0.2,0.9,0.4c0.6,0.2,1.1,0.5,1.6,0.7
				c0.1,0,0.2,0.1,0.3,0.1c0.3,0.1,0.6,0.3,0.9,0.4c0.8,0.4,1.7,0.8,2.5,1.3c0.3,0.2,0.6,0.3,0.8,0.5c0.5,0.3,0.9,0.5,1.3,0.8
				c0,0,0.1,0,0.1,0.1c14.3,8.9,23.7,24.7,23.8,42.5C118.8,74.6,118.8,75.7,118.7,76.9z"/>
		</g>
		
			<radialGradient id="XMLID_97_" cx="65.7805" cy="90.8356" r="46.1991" gradientTransform="matrix(0.9985 5.410000e-002 -5.410000e-002 0.9985 6.7058 -10.5211)" gradientUnits="userSpaceOnUse">
			<stop  offset="0" style="stop-color:#00A6AD"/>
			<stop  offset="0.2775" style="stop-color:#00B9AB"/>
			<stop  offset="0.3591" style="stop-color:#06B4AB"/>
			<stop  offset="0.4741" style="stop-color:#00AAAC"/>
			<stop  offset="0.6089" style="stop-color:#009AAD"/>
			<stop  offset="0.7587" style="stop-color:#0083AB"/>
			<stop  offset="0.9192" style="stop-color:#0069A7"/>
			<stop  offset="1" style="stop-color:#035AA4"/>
		</radialGradient>
		<path id="XMLID_16_" class="st4" d="M118.4,80.3c0,0.2-0.1,0.5-0.1,0.7c0,0.3-0.1,0.7-0.1,1c0,0.3-0.1,0.5-0.1,0.8
			c-0.1,0.4-0.1,0.8-0.2,1.2c0,0.2-0.1,0.4-0.1,0.5c-0.2,1.2-0.5,2.4-0.9,3.5c0,0.2-0.1,0.3-0.1,0.5c-0.1,0.2-0.1,0.4-0.2,0.6
			c-0.1,0.2-0.1,0.4-0.2,0.6c-0.1,0.3-0.2,0.5-0.3,0.8c-0.1,0.3-0.2,0.5-0.3,0.8c-0.2,0.5-0.4,1.1-0.6,1.6c-0.2,0.5-0.4,1.1-0.7,1.6
			c-0.1,0.2-0.2,0.4-0.3,0.7c-0.1,0.3-0.3,0.6-0.4,0.9c-0.1,0.3-0.2,0.5-0.3,0.8c-0.1,0.3-0.2,0.5-0.4,0.7c-0.1,0.3-0.3,0.5-0.4,0.8
			c-0.8,1.5-1.6,2.9-2.5,4.3c-0.1,0.2-0.3,0.4-0.5,0.6c-0.8,1.2-1.7,2.3-2.6,3.4c-0.2,0.2-0.4,0.4-0.5,0.6c-0.2,0.2-0.4,0.5-0.6,0.7
			c-0.2,0.2-0.3,0.3-0.5,0.5c-0.4,0.5-0.9,0.9-1.3,1.4c-0.2,0.2-0.5,0.5-0.7,0.7c-0.8,0.8-1.5,1.3-2.3,2.1c-0.2,0.2-0.8,0.6-1,0.8
			c-1,0.8-2.2,1.6-3.3,2.4c-0.2,0.1-0.4,0.3-0.6,0.4c-0.3,0.2-0.6,0.4-0.9,0.6c-0.3,0.2-0.5,0.3-0.8,0.5c-0.2,0.1-0.3,0.2-0.4,0.3
			c-0.2,0.1-0.3,0.2-0.5,0.3c-0.1,0.1-0.2,0.1-0.3,0.2c-0.4,0.2-0.9,0.5-1.3,0.7c-1.4,0.8-2.9,1.5-4.4,2.1c-0.3,0.1-0.6,0.3-0.9,0.4
			c-0.5,0.2-1,0.4-1.5,0.6c-0.4,0.2-0.8,0.3-1.2,0.4c-0.6,0.2-1.2,0.4-1.9,0.6c-0.3,0.1-0.6,0.2-0.9,0.3c-0.1,0-0.3,0.1-0.4,0.1
			c-0.1,0-0.2,0-0.3,0.1c-0.1,0-0.2,0-0.3,0.1c-0.3,0.1-0.7,0.2-1,0.2c-0.1,0-0.2,0-0.3,0.1c-0.7,0.1-1.3,0.3-2,0.4
			c-0.3,0-0.5,0.1-0.8,0.1c-0.5,0.1-1,0.2-1.5,0.2c-0.4,0-0.8,0.1-1.2,0.1c-0.4,0-0.8,0.1-1.1,0.1c-0.5,0-1,0.1-1.6,0.1
			c-0.3,0-0.5,0-0.8,0c-0.6,0-1.3,0-1.9,0c-0.1,0-0.3,0-0.4,0c-0.8,0-1.5,0-2.3-0.1l-0.1,0c-0.8,0-1.6-0.1-2.3-0.2
			c-0.1,0-0.3,0-0.4,0c-0.6-0.1-1.3-0.2-1.9-0.3c-0.3,0-0.5-0.1-0.8-0.1c-0.5-0.1-1-0.2-1.5-0.3c-0.4-0.1-0.8-0.1-1.1-0.2
			c-0.4-0.1-0.8-0.2-1.2-0.3c-0.5-0.1-1-0.3-1.5-0.4c-0.3-0.1-0.5-0.1-0.8-0.2c-0.6-0.2-1.3-0.4-1.9-0.6c-0.1,0-0.2-0.1-0.3-0.1
			c-0.3-0.1-0.6-0.2-0.9-0.3c-0.1,0-0.2-0.1-0.3-0.1c-0.1,0-0.2-0.1-0.2-0.1c-0.1-0.1-0.2-0.1-0.4-0.1c-0.3-0.1-0.6-0.2-0.9-0.4
			c-0.6-0.2-1.2-0.5-1.8-0.8c-0.4-0.2-0.9-0.4-1.3-0.6c-0.4-0.2-0.9-0.4-1.3-0.7c-0.3-0.2-0.6-0.3-0.9-0.5c-0.7-0.4-1.4-0.8-2.1-1.2
			c-0.2-0.1-0.4-0.3-0.7-0.4c-0.3-0.2-0.5-0.3-0.8-0.5c-0.7-0.5-1.4-0.9-2.1-1.4c-0.8-0.6-1.6-1.2-2.4-1.9c-0.2-0.2-0.4-0.3-0.5-0.5
			c-0.3-0.2-0.6-0.5-0.8-0.7c-0.2-0.2-0.5-0.4-0.7-0.6c-0.3-0.2-0.5-0.5-0.7-0.7c-0.2-0.2-0.4-0.4-0.6-0.6c-0.2-0.2-0.5-0.5-0.7-0.7
			c-1.1-1.2-2.1-2.4-3.1-3.6c-0.2-0.3-0.4-0.5-0.6-0.8c-0.2-0.3-0.4-0.5-0.6-0.8c-0.2-0.3-0.4-0.5-0.6-0.8c-0.2-0.3-0.4-0.5-0.5-0.8
			c-0.2-0.3-0.4-0.5-0.5-0.8c-0.7-1.1-1.3-2.2-2-3.3c-0.2-0.3-0.3-0.6-0.5-0.9c-0.1-0.2-0.2-0.4-0.3-0.6c-0.6-1.2-1.1-2.3-1.6-3.5
			c-0.1-0.3-0.2-0.5-0.3-0.8c-0.1-0.3-0.2-0.5-0.3-0.8c-0.6-1.7-1.2-3.4-1.6-5.1c-0.1-0.3-0.2-0.6-0.2-1c-0.1-0.3-0.2-0.7-0.2-1
			c-0.1-0.3-0.1-0.6-0.2-0.9c-0.1-0.3-0.1-0.7-0.2-1c-0.2-1.2-0.4-2.5-0.5-3.7c0-0.2,0-0.4,0-0.6c0-0.2,0-0.5-0.1-0.7
			c0-0.3,0-0.5,0-0.8c0-0.2,0-0.3,0-0.5c0-0.6,0-1.2-0.1-1.8c0-1.1,0-2.2,0.1-3.3c0.1-1.1,0.2-2.2,0.3-3.3
			c2.5-15.9,16.7-27.6,33.1-26.7c7.1,0.4,13.5,3.1,18.6,7.3c-8.1,5.4-13.5,14.4-14.1,24.8c-0.6,10.4,4.1,19.8,11.5,26
			c5.1,4.2,11.3,7.1,18.4,7.4C101.7,108,115.9,96.2,118.4,80.3z"/>
		<radialGradient id="XMLID_98_" cx="59.9382" cy="86.4313" r="40.7963" gradientUnits="userSpaceOnUse">
			<stop  offset="0.2765" style="stop-color:#035AA4"/>
			<stop  offset="0.3264" style="stop-color:#0069A7"/>
			<stop  offset="0.4254" style="stop-color:#0083AB"/>
			<stop  offset="0.5179" style="stop-color:#009AAD"/>
			<stop  offset="0.6012" style="stop-color:#00AAAC"/>
			<stop  offset="0.6721" style="stop-color:#06B4AB"/>
			<stop  offset="0.7225" style="stop-color:#00B9AB"/>
			<stop  offset="0.8541" style="stop-color:#035AA4"/>
			<stop  offset="0.8896" style="stop-color:#0073A9"/>
			<stop  offset="0.924" style="stop-color:#0088AC"/>
			<stop  offset="0.9549" style="stop-color:#0098AD"/>
			<stop  offset="0.9813" style="stop-color:#00A2AE"/>
			<stop  offset="1" style="stop-color:#00A6AD"/>
		</radialGradient>
		<path id="XMLID_15_" class="st5" d="M101.6,112.4c-1,0.9-2.1,1.7-3.2,2.4c-0.2,0.1-0.4,0.3-0.6,0.4c-0.3,0.2-0.6,0.4-0.9,0.6
			c-0.3,0.2-0.5,0.3-0.8,0.5c-0.2,0.1-0.3,0.2-0.4,0.3c-0.2,0.1-0.3,0.2-0.5,0.3c-0.1,0.1-0.2,0.1-0.3,0.2c-0.4,0.2-0.9,0.5-1.3,0.7
			c-1.4,0.8-2.9,1.5-4.4,2.1c-0.3,0.1-0.6,0.3-0.9,0.4c-0.5,0.2-1,0.4-1.5,0.6c-0.4,0.2-0.8,0.3-1.2,0.4c-0.6,0.2-1.2,0.4-1.9,0.6
			c-0.3,0.1-0.6,0.2-0.9,0.3c-0.1,0-0.3,0.1-0.4,0.1c-0.1,0-0.2,0-0.3,0.1c-0.1,0-0.2,0-0.3,0.1c-0.3,0.1-0.7,0.2-1,0.2
			c-0.1,0-0.2,0-0.3,0.1c-0.7,0.1-1.3,0.3-2,0.4c-0.3,0-0.5,0.1-0.8,0.1c-0.5,0.1-1,0.2-1.6,0.2c-0.4,0-0.8,0.1-1.2,0.1
			c-0.4,0-0.8,0.1-1.2,0.1c-0.5,0-1,0.1-1.6,0.1c-0.3,0-0.5,0-0.8,0c-0.7,0-1.3,0-2,0c-0.1,0-0.3,0-0.4,0c-0.8,0-1.6,0-2.3-0.1
			l-0.1,0c-0.8,0-1.6-0.1-2.3-0.2c-0.1,0-0.3,0-0.4,0c-0.7-0.1-1.3-0.2-1.9-0.3c-0.3,0-0.5-0.1-0.8-0.1c-0.5-0.1-1-0.2-1.6-0.3
			c-0.4-0.1-0.8-0.1-1.1-0.2c-0.4-0.1-0.8-0.2-1.2-0.3c-0.5-0.1-1-0.3-1.5-0.4c-0.3-0.1-0.5-0.1-0.8-0.2c-0.6-0.2-1.3-0.4-1.9-0.6
			c-0.1,0-0.2-0.1-0.3-0.1c-0.3-0.1-0.6-0.2-1-0.3c-0.1,0-0.2-0.1-0.3-0.1c-0.1,0-0.2-0.1-0.3-0.1c-0.1-0.1-0.3-0.1-0.4-0.1
			c-0.3-0.1-0.6-0.2-0.9-0.4c-0.6-0.2-1.2-0.5-1.8-0.8c-0.4-0.2-0.9-0.4-1.3-0.6c-0.4-0.2-0.9-0.4-1.3-0.7c-0.3-0.2-0.6-0.3-0.9-0.5
			c-0.7-0.4-1.4-0.8-2.1-1.2c-0.2-0.1-0.5-0.3-0.7-0.4c-0.3-0.2-0.5-0.3-0.8-0.5c-0.7-0.5-1.4-1-2.1-1.5c-0.8-0.6-1.7-1.3-2.4-1.9
			c-0.2-0.2-0.4-0.3-0.5-0.5c-0.3-0.2-0.6-0.5-0.8-0.7c-0.2-0.2-0.5-0.4-0.7-0.7c-0.3-0.2-0.5-0.5-0.7-0.7c-0.2-0.2-0.4-0.4-0.6-0.6
			c-0.2-0.2-0.5-0.5-0.7-0.7c-1.1-1.2-2.2-2.4-3.1-3.6c-0.2-0.3-0.4-0.5-0.6-0.8c-0.2-0.3-0.4-0.5-0.6-0.8c-0.2-0.3-0.4-0.5-0.6-0.8
			c-0.2-0.3-0.4-0.5-0.5-0.8c-0.2-0.3-0.4-0.5-0.5-0.8c-0.7-1.1-1.4-2.2-2-3.3c-0.2-0.3-0.3-0.6-0.5-0.9c-0.1-0.2-0.2-0.4-0.3-0.6
			c-0.6-1.2-1.1-2.4-1.6-3.6c-0.1-0.3-0.2-0.5-0.3-0.8c-0.1-0.3-0.2-0.5-0.3-0.8c-0.6-1.7-1.2-3.4-1.6-5.2c-0.1-0.3-0.2-0.6-0.2-1
			c-0.1-0.3-0.2-0.7-0.2-1c-0.1-0.3-0.1-0.6-0.2-0.9c-0.1-0.3-0.1-0.7-0.2-1c-0.2-1.2-0.4-2.5-0.5-3.7c0-0.2,0-0.4,0-0.6
			c0-0.2,0-0.5-0.1-0.7c0-0.3,0-0.5,0-0.8c0-0.2,0-0.3,0-0.5c0-0.6,0-1.2-0.1-1.8c0-1.1,0-2.2,0.1-3.3c0.1-1.1,0.2-2.2,0.3-3.3
			c1.1-7.1,6.2-14.3,11.1-19C23.9,52.2,18.7,60.3,17.5,68c-0.1,1.1-0.2,2.2-0.3,3.3c-0.1,1.1-0.1,2.2-0.1,3.3c0,0.6,0,1.2,0.1,1.8
			c0,0.2,0,0.3,0,0.5c0,0.3,0,0.5,0,0.8c0,0.2,0,0.5,0.1,0.7c0,0.2,0,0.4,0,0.6c0.1,1.3,0.3,2.5,0.5,3.7c0.1,0.3,0.1,0.7,0.2,1
			c0.1,0.3,0.1,0.6,0.2,0.9c0.1,0.3,0.1,0.7,0.2,1c0.1,0.3,0.2,0.6,0.2,1c0.4,1.8,1,3.5,1.6,5.2c0.1,0.3,0.2,0.5,0.3,0.8
			c0.1,0.3,0.2,0.5,0.3,0.8c0.5,1.2,1,2.4,1.6,3.6c0.1,0.2,0.2,0.4,0.3,0.6c0.1,0.3,0.3,0.6,0.5,0.9c0.6,1.1,1.3,2.2,2,3.3
			c0.2,0.3,0.4,0.5,0.5,0.8c0.2,0.3,0.4,0.5,0.5,0.8c0.2,0.3,0.4,0.5,0.6,0.8c0.2,0.3,0.4,0.5,0.6,0.8c0.2,0.3,0.4,0.5,0.6,0.8
			c1,1.3,2,2.5,3.1,3.6c0.2,0.2,0.4,0.5,0.7,0.7c0.2,0.2,0.4,0.4,0.6,0.6c0.2,0.2,0.5,0.5,0.7,0.7c0.2,0.2,0.5,0.4,0.7,0.7
			c0.3,0.3,0.6,0.5,0.8,0.7c0.2,0.2,0.4,0.3,0.5,0.5c0.8,0.7,1.6,1.3,2.4,1.9c0.7,0.5,1.4,1,2.1,1.5c0.3,0.2,0.5,0.3,0.8,0.5
			c0.2,0.1,0.4,0.3,0.7,0.4c0.7,0.4,1.4,0.8,2.1,1.2c0.3,0.2,0.6,0.3,0.9,0.5c0.4,0.2,0.9,0.5,1.3,0.7c0.4,0.2,0.9,0.4,1.3,0.6
			c0.6,0.3,1.2,0.5,1.8,0.8c0.3,0.1,0.6,0.2,0.9,0.4c0.1,0,0.2,0.1,0.4,0.1c0.1,0,0.2,0.1,0.3,0.1c0.1,0,0.2,0.1,0.3,0.1
			c0.3,0.1,0.6,0.2,1,0.3c0.1,0,0.2,0.1,0.3,0.1c0.6,0.2,1.3,0.4,1.9,0.6c0.3,0.1,0.5,0.1,0.8,0.2c0.5,0.1,1,0.3,1.5,0.4
			c0.4,0.1,0.8,0.2,1.2,0.3c0.4,0.1,0.8,0.2,1.1,0.2c0.5,0.1,1,0.2,1.6,0.3c0.3,0,0.5,0.1,0.8,0.1c0.6,0.1,1.3,0.2,1.9,0.3
			c0.1,0,0.3,0,0.4,0c0.8,0.1,1.5,0.1,2.3,0.2l0.1,0c0.8,0,1.6,0.1,2.3,0.1c0.1,0,0.3,0,0.4,0c0.7,0,1.3,0,2,0c0.3,0,0.5,0,0.8,0
			c0.5,0,1.1-0.1,1.6-0.1c0.4,0,0.8-0.1,1.2-0.1c0.4,0,0.8-0.1,1.2-0.1c0.5-0.1,1-0.1,1.6-0.2c0.3,0,0.5-0.1,0.8-0.1
			c0.7-0.1,1.3-0.3,2-0.4c0.1,0,0.2-0.1,0.3-0.1c0.3-0.1,0.7-0.2,1-0.2c0.1,0,0.2,0,0.3-0.1c0.1,0,0.2,0,0.3-0.1
			c0.1,0,0.3-0.1,0.4-0.1c0.3-0.1,0.6-0.2,0.9-0.3c0.6-0.2,1.3-0.4,1.9-0.6c0.4-0.1,0.8-0.3,1.2-0.4c0.5-0.2,1-0.4,1.5-0.6
			c0.3-0.1,0.6-0.2,0.9-0.4c1.5-0.6,3-1.3,4.4-2.1c0.4-0.2,0.9-0.5,1.3-0.7c0.1,0,0.2-0.1,0.3-0.2c0.2-0.1,0.3-0.2,0.5-0.3
			c0.1-0.1,0.3-0.2,0.4-0.3c0.3-0.2,0.5-0.3,0.8-0.5c0.3-0.2,0.6-0.4,0.9-0.6c0.2-0.1,0.4-0.3,0.6-0.4c1.1-0.8,2.2-1.6,3.2-2.4
			c0.2-0.2,0.5-0.4,0.7-0.6c0.6-0.5,1.2-1.1,1.8-1.6c-0.1,0.1-0.3,0.2-0.4,0.3C102.1,112,101.9,112.2,101.6,112.4z"/>
		<radialGradient id="XMLID_99_" cx="55.2221" cy="68.2488" r="27.4608" gradientUnits="userSpaceOnUse">
			<stop  offset="0" style="stop-color:#035AA4"/>
			<stop  offset="8.083009e-002" style="stop-color:#0069A7"/>
			<stop  offset="0.2413" style="stop-color:#0083AB"/>
			<stop  offset="0.3911" style="stop-color:#009AAD"/>
			<stop  offset="0.5259" style="stop-color:#00AAAC"/>
			<stop  offset="0.6409" style="stop-color:#06B4AB"/>
			<stop  offset="0.7225" style="stop-color:#00B9AB"/>
			<stop  offset="1" style="stop-color:#00A6AD"/>
		</radialGradient>
		<path id="XMLID_14_" class="st6" d="M82,73.7c0.6-10.4-4-20-11.4-26.2c-5.1-4.2-11.5-6.9-18.6-7.3c-9.1-0.5-17.5,3.1-23.6,8.9
			c6-5.1,13.8-8.1,22.2-7.7c7.1,0.4,13.5,3.1,18.6,7.3c7.5,6.2,12,15.7,11.4,26.2c-0.5,8.4-4.2,15.9-9.8,21.3
			C77.3,90.8,81.5,82.8,82,73.7z"/>
		<g id="XMLID_12_">
			<linearGradient id="XMLID_100_" gradientUnits="userSpaceOnUse" x1="26.8742" y1="64.0756" x2="119.5344" y2="64.0756">
				<stop  offset="0" style="stop-color:#2D1852"/>
				<stop  offset="0.1575" style="stop-color:#2E356F"/>
				<stop  offset="0.3309" style="stop-color:#254D8D"/>
				<stop  offset="0.476" style="stop-color:#145CA3"/>
				<stop  offset="0.574" style="stop-color:#0463AD"/>
				<stop  offset="0.6505" style="stop-color:#185A9F"/>
				<stop  offset="0.7808" style="stop-color:#294684"/>
				<stop  offset="0.9482" style="stop-color:#2F255D"/>
				<stop  offset="1" style="stop-color:#2D1852"/>
			</linearGradient>
			<path id="XMLID_13_" class="st7" d="M119.5,76.6c1.5-28-20.1-51.9-48.2-53.4c-18.1-1-34.6,7.6-44.4,21.3
				c9.9-12.6,25.6-20.3,42.9-19.4c28.2,1.5,49.7,25.5,48.2,53.4c-0.5,10-4,19-9.5,26.6C114.8,97.2,118.9,87.4,119.5,76.6z"/>
		</g>
	</g>
	<g id="XMLID_6_">
		<radialGradient id="XMLID_101_" cx="91.8182" cy="97.2869" r="19.4536" gradientUnits="userSpaceOnUse">
			<stop  offset="0" style="stop-color:#00A6AD"/>
			<stop  offset="0.2775" style="stop-color:#00B9AB"/>
			<stop  offset="0.3591" style="stop-color:#06B4AB"/>
			<stop  offset="0.4741" style="stop-color:#00AAAC"/>
			<stop  offset="0.6089" style="stop-color:#009AAD"/>
			<stop  offset="0.7587" style="stop-color:#0083AB"/>
			<stop  offset="0.9192" style="stop-color:#0069A7"/>
			<stop  offset="1" style="stop-color:#035AA4"/>
		</radialGradient>
		<path id="XMLID_46_" class="st8" d="M66.8,99.5c0,0,0.7,0.6,2.1,1.5c1.4,0.9,3.4,2.1,6,3.1c2.6,1.1,5.7,2,9.2,2.3
			c3.4,0.4,7.2,0.1,10.7-0.8c1.8-0.5,3.5-1,5.2-1.7c1.6-0.7,3.2-1.7,4.6-2.7c1.4-1,2.7-2.1,3.9-3.1c1.2-1.1,2.2-2.2,3.1-3.2
			c1.8-2.1,3.1-4.1,3.9-5.5c0.8-1.4,1.2-2.3,1.2-2.3s-0.1,0.2-0.2,0.6c-0.2,0.4-0.4,1-0.8,1.8c-0.7,1.5-1.8,3.6-3.6,5.8
			c-1.7,2.2-4,4.7-6.9,6.8c-1.5,1-3,2.1-4.8,2.8c-1.7,0.8-3.5,1.4-5.4,1.9c-3.7,0.9-7.6,1.1-11.1,0.7c-1.8-0.2-3.5-0.6-5-1.1
			c-1.6-0.5-3-1-4.3-1.6c-2.6-1.2-4.5-2.6-5.8-3.6C67.4,100.2,66.8,99.5,66.8,99.5z"/>
	</g>
</g>
<g id="XMLID_2_">
	<path id="XMLID_7_" class="st9" d="M191.9,112.1c-20.3,0-33.7-14-29.6-38.6c3.9-23.7,20.8-36.7,40.1-36.7
		c20.1,0,33.5,14.1,29.4,38.8C227.9,99.3,211,112.1,191.9,112.1z M201.7,52.4c-11.2,0-19.4,8.5-21.8,23.3c-2.5,14,2.6,21,12.5,21
		c11.1,0,19.2-8.3,21.6-23C216.4,59.7,211.8,52.4,201.7,52.4z"/>
	<path id="XMLID_11_" class="st9" d="M247.7,111.1h-17.5l12.2-73.3h17.5L247.7,111.1z"/>
	<path id="XMLID_28_" class="st9" d="M249.7,129.9l6-12.7c4.8,1.7,8.4,1.5,10.9-2.5l1-1.7l-10.1-56.9h17.7l3.6,39.2h0.6l16.8-39.2
		h19.1l-30.7,60.2c-4.6,8.9-11.9,15.3-24.5,15.3C255.9,131.6,252.2,130.9,249.7,129.9z"/>
	<path id="XMLID_30_" class="st9" d="M316,56.2h16.6L331,66.3h0.6c3.4-6.7,9.7-10.8,17.3-10.8s12.8,4.2,13.2,10.8h0.6
		c3.1-6.5,10.2-10.8,18.4-10.8c10.3,0,16.3,7.1,14.4,18.7l-6.2,37h-17.5l5.6-33c0.8-5.5-1.9-8.4-6.3-8.4c-4.8,0-8.3,3.4-9,8.6
		l-5.5,32.8h-16.8l5.6-33.2c0.8-5.1-1.7-8.3-6.3-8.3c-4.5,0-8.3,3.5-9.1,8.9l-5.5,32.5h-17.5L316,56.2z"/>
	<path id="XMLID_32_" class="st9" d="M403.2,56.2h17.3l-1.5,9.4h0.5c2.9-5,8.5-10.1,17.2-10.1c11.5,0,20.4,8.8,17.1,28.2
		c-3.1,18.7-14.5,28.2-26.7,28.2c-8.3,0-12.5-4.6-13.7-9.7H413l-8,50.2h-17.5L403.2,56.2z M423.5,98.3c6.4,0,10.9-5.8,12.5-14.6
		c1.4-8.8-1.1-14.5-7.7-14.5c-6.4,0-11.1,5.5-12.5,14.5C414.3,92.5,417.1,98.3,423.5,98.3z"/>
	<path id="XMLID_35_" class="st9" d="M461.6,56.2h17.5l-9.2,55h-17.5L461.6,56.2z M463.7,41.4c0.7-4.6,5.3-8.3,10.2-8.3
		c5,0,8.4,3.7,7.8,8.3c-0.6,4.6-5.2,8.4-10.1,8.4C466.6,49.7,463.1,45.9,463.7,41.4z"/>
	<path id="XMLID_38_" class="st9" d="M477.5,83.8c2.7-16.9,15.2-28.4,32.4-28.4c15.2,0,23.6,8.8,21.8,22.3h-16.3
		c0.3-5.6-2.4-9-7.3-9c-6.2,0-11.2,5.2-12.7,14.9c-1.6,9.8,1.5,15,7.7,15c4.9,0,8.8-3.2,10.5-9h16.3c-2.8,13.6-13.8,22.6-29.3,22.6
		C483.1,112.1,474.7,100.6,477.5,83.8z"/>
	<path id="XMLID_40_" class="st9" d="M529.1,95.9c2-12.2,12-16.3,23.3-17.2c9.5-0.8,13.3-1.6,13.9-4.9v-0.2c0.6-3.7-1.7-5.8-6-5.8
		c-4.6,0-8,2.1-9.3,5.7l-16-0.6c3-10,12.7-17.5,27.5-17.5c13.9,0,23.2,6.7,21.3,18.3l-6.3,37.3H561l1.3-7.7h-0.4
		c-3.9,5.6-9.7,8.6-17.4,8.6C534,112,527.3,106.7,529.1,95.9z M563.4,91.6l0.8-5.2c-2.1,1-6.3,1.7-9.5,2.2c-5.2,0.8-8.3,2.9-8.9,6.4
		c-0.6,3.6,1.9,5.6,6,5.6C557.4,100.6,562.5,96.9,563.4,91.6z"/>
</g>
<g id="XMLID_1_">
	<path id="XMLID_3_" class="st10" d="M169,141.7h-4.1c-1.2,0-2.3-0.6-2.3-1.6s1-1.6,2.3-1.6h12.6c1.2,0,2.3,0.6,2.3,1.6
		s-1,1.6-2.3,1.6h-4.1v12.3c0,1.2-0.8,2-2.2,2s-2.2-0.8-2.2-2V141.7z"/>
	<path id="XMLID_26_" class="st10" d="M182.1,140.7c0-1.7,1-2.3,2.5-2.3h10.2c1.3,0,2.2,0.3,2.2,1.6s-0.9,1.6-2.2,1.6h-8.4v3.7h7.4
		c1.1,0,2,0.3,2,1.5c0,1.2-0.9,1.5-2,1.5h-7.4v4.2h8.6c1.3,0,2.2,0.3,2.2,1.6s-0.9,1.6-2.2,1.6h-10.4c-1.5,0-2.5-0.5-2.5-2.3V140.7z
		"/>
	<path id="XMLID_43_" class="st10" d="M208.9,138c5,0,7.7,2.8,7.7,4.5c0,1.1-0.7,1.8-2,1.8c-2.5,0-1.8-3.1-5.8-3.1
		c-2.7,0-5,2.1-5,5.9c0,3.1,1.4,5.9,5.1,5.9c3.4,0,3.3-3.3,5.4-3.3c1.1,0,2.1,0.5,2.1,1.5c0,2.5-3.3,4.9-7.6,4.9c-6,0-9.5-3.1-9.5-9
		C199.6,142.1,202.7,138,208.9,138z"/>
	<path id="XMLID_47_" class="st10" d="M219.3,140c0-1.2,0.8-2,2.2-2c1.3,0,2.2,0.8,2.2,2v4.9h7.9V140c0-1.2,0.8-2,2.2-2
		s2.2,0.8,2.2,2v13.9c0,1.2-0.8,2-2.2,2s-2.2-0.8-2.2-2v-5.7h-7.9v5.7c0,1.2-0.8,2-2.2,2c-1.3,0-2.2-0.8-2.2-2V140z"/>
	<path id="XMLID_49_" class="st10" d="M239.8,140.4c0-1.6,0.9-2.3,2.7-2.3c0.9,0,1.7,0.3,2.2,1l7.6,11.1h0.1V140
		c0-1.3,0.8-1.9,2.1-1.9s2.1,0.6,2.1,1.9v13.5c0,1.6-0.7,2.4-2.6,2.4c-1.4,0-1.8-0.3-2.4-1.1l-7.6-10.7H244v9.9
		c0,1.3-0.8,1.9-2.1,1.9s-2.1-0.6-2.1-1.9V140.4z"/>
	<path id="XMLID_51_" class="st10" d="M269.3,138c6.3,0,9.6,3.7,9.6,8.8c0,4.8-3.1,9.2-9.6,9.2c-6.8,0-9.6-4-9.6-9.2
		C259.7,141.7,263.1,138,269.3,138z M269.3,152.8c3.9,0,5.3-2.8,5.3-6.1s-1.7-5.6-5.3-5.6c-3.6,0-5.3,2.3-5.3,5.6
		S265.3,152.8,269.3,152.8z"/>
	<path id="XMLID_54_" class="st10" d="M282.2,140c0-1.2,0.8-2,2.2-2c1.3,0,2.2,0.8,2.2,2v12.3h7.3c1.2,0,2.3,0.6,2.3,1.6
		c0,1.1-1,1.6-2.3,1.6h-9.1c-1.5,0-2.5-0.5-2.5-2.3V140z"/>
	<path id="XMLID_56_" class="st10" d="M307.2,138c6.3,0,9.6,3.7,9.6,8.8c0,4.8-3.1,9.2-9.6,9.2c-6.8,0-9.6-4-9.6-9.2
		C297.5,141.7,300.9,138,307.2,138z M307.2,152.8c3.9,0,5.3-2.8,5.3-6.1s-1.8-5.6-5.3-5.6c-3.6,0-5.3,2.3-5.3,5.6
		S303.1,152.8,307.2,152.8z"/>
	<path id="XMLID_59_" class="st10" d="M337.7,154.6c0,0.7-0.6,1.3-1.5,1.3c-1.2,0-1.6-0.7-1.9-2.2c-1.2,1.4-3,2.3-5.7,2.3
		c-6.7,0-9.3-4.2-9.3-9c0-5.8,4-9,9.9-9c4.8,0,7.4,2.6,7.4,4.1c0,1.4-1.1,1.7-2,1.7c-2.1,0-1.4-2.7-5.6-2.7c-3,0-5.4,1.8-5.4,6.1
		c0,3.4,1.9,5.7,5.4,5.7c2.3,0,4.3-1.4,4.5-3.5h-2.8c-0.9,0-2-0.3-2-1.5c0-1,0.6-1.5,1.7-1.5h5.4c1.3,0,1.8,0.6,1.8,1.6V154.6z"/>
	<path id="XMLID_61_" class="st10" d="M341.6,140c0-1.2,0.8-2,2.2-2s2.2,0.8,2.2,2v13.9c0,1.2-0.8,2-2.2,2s-2.2-0.8-2.2-2V140z"/>
	<path id="XMLID_63_" class="st10" d="M350.1,140.7c0-1.7,1-2.3,2.5-2.3h10.2c1.3,0,2.2,0.3,2.2,1.6s-0.9,1.6-2.2,1.6h-8.4v3.7h7.4
		c1.1,0,2,0.3,2,1.5c0,1.2-0.9,1.5-2,1.5h-7.4v4.2h8.6c1.3,0,2.2,0.3,2.2,1.6s-0.9,1.6-2.2,1.6h-10.4c-1.5,0-2.5-0.5-2.5-2.3V140.7z
		"/>
	<path id="XMLID_65_" class="st10" d="M378.1,145.6c4,0.8,5,2.9,5,4.9c0,3.1-2.6,5.4-7.8,5.4c-5.5,0-8-2.5-8-4.3
		c0-1,0.8-1.6,1.8-1.6c2.4,0,1.7,3.1,6.1,3.1c2.3,0,3.5-1.1,3.5-2.3c0-0.7-0.4-1.5-1.9-1.8L372,148c-3.9-0.9-4.7-2.9-4.7-4.7
		c0-3.8,3.9-5.3,7.6-5.3c3.4,0,7.4,1.7,7.4,4c0,1-0.9,1.6-2,1.6c-2,0-1.6-2.6-5.7-2.6c-2,0-3.1,0.8-3.1,2c0,1.2,1.6,1.6,3,1.9
		L378.1,145.6z"/>
</g>
</svg>
