<svg width="577" height="131" viewBox="0 0 577 131" fill="none" xmlns="http://www.w3.org/2000/svg">
<g clip-path="url(#clip0_211_727)">
<path d="M184.3 79.1C164 79.1 150.6 65.1 154.7 40.5C158.6 16.8 175.5 3.79999 194.8 3.79999C214.9 3.79999 228.3 17.9 224.2 42.6C220.3 66.3 203.4 79.1 184.3 79.1ZM194.2 19.4C183 19.4 174.8 27.9 172.4 42.7C169.9 56.7 175 63.7 184.9 63.7C196 63.7 204.1 55.4 206.5 40.7C208.8 26.7 204.2 19.4 194.2 19.4Z" fill="white"/>
<path d="M240.2 78.1H222.7L234.9 4.79999H252.4L240.2 78.1Z" fill="white"/>
<path d="M242.1 96.9L248.1 84.2C252.9 85.9 256.5 85.7 259 81.7L260 80L250 23.1H267.7L271.3 62.3H271.9L288.7 23.1H307.8L277 83.4C272.4 92.3 265.1 98.7 252.5 98.7C248.3 98.6 244.6 97.9 242.1 96.9Z" fill="white"/>
<path d="M308.5 23.1H325.1L323.5 33.2H324.1C327.5 26.5 333.8 22.4 341.4 22.4C349 22.4 354.2 26.6 354.6 33.2H355.2C358.3 26.7 365.4 22.4 373.6 22.4C383.9 22.4 389.9 29.5 388 41.1L381.8 78.1H364.3L369.9 45.1C370.7 39.6 368 36.7 363.6 36.7C358.8 36.7 355.3 40.1 354.6 45.3L349 78.1H332.2L337.8 44.9C338.6 39.8 336.1 36.6 331.5 36.6C327 36.6 323.2 40.1 322.4 45.5L316.9 78H299.4L308.5 23.1Z" fill="white"/>
<path d="M395.6 23.1H413L411.5 32.5H412C414.9 27.5 420.5 22.4 429.2 22.4C440.7 22.4 449.6 31.2 446.3 50.6C443.2 69.3 431.8 78.8 419.6 78.8C411.3 78.8 407.1 74.2 405.9 69.1H405.4L397.4 119.3H379.9L395.6 23.1ZM415.9 65.3C422.3 65.3 426.8 59.5 428.4 50.7C429.8 41.9 427.3 36.2 420.7 36.2C414.3 36.2 409.6 41.7 408.2 50.7C406.8 59.5 409.5 65.3 415.9 65.3Z" fill="white"/>
<path d="M454.1 23.1H471.6L462.4 78.1H444.9L454.1 23.1ZM456.2 8.3C456.9 3.7 461.5 0 466.4 0C471.4 0 474.8 3.7 474.2 8.3C473.6 12.9 469 16.7 464.1 16.7C459.1 16.7 455.5 12.9 456.2 8.3Z" fill="white"/>
<path d="M469.9 50.8C472.6 33.9 485.1 22.4 502.3 22.4C517.5 22.4 525.9 31.2 524.1 44.7H507.8C508.1 39.1 505.4 35.7 500.5 35.7C494.3 35.7 489.3 40.9 487.8 50.6C486.2 60.4 489.3 65.6 495.5 65.6C500.4 65.6 504.3 62.4 506 56.6H522.3C519.5 70.2 508.5 79.2 493 79.2C475.5 79.1 467.1 67.6 469.9 50.8Z" fill="white"/>
<path d="M521.6 62.9C523.6 50.7 533.6 46.6 544.9 45.7C554.4 44.9 558.2 44.1 558.8 40.8V40.6C559.4 36.9 557.1 34.8 552.8 34.8C548.2 34.8 544.8 36.9 543.5 40.5L527.5 39.9C530.5 29.9 540.2 22.4 555 22.4C568.9 22.4 578.2 29.1 576.3 40.7L570 78H553.5L554.8 70.3H554.4C550.5 75.9 544.7 78.9 537 78.9C526.5 79 519.8 73.7 521.6 62.9ZM555.8 58.6L556.6 53.4C554.5 54.4 550.3 55.1 547.1 55.6C541.9 56.4 538.8 58.5 538.2 62C537.6 65.6 540.1 67.6 544.2 67.6C549.8 67.6 554.9 63.9 555.8 58.6Z" fill="white"/>
<path d="M161.4 108.7H157.3C156.1 108.7 155 108.1 155 107.1C155 106.1 156 105.5 157.3 105.5H169.9C171.1 105.5 172.2 106.1 172.2 107.1C172.2 108.1 171.2 108.7 169.9 108.7H165.8V121C165.8 122.2 165 123 163.6 123C162.2 123 161.4 122.2 161.4 121V108.7Z" fill="#00A0A0"/>
<path d="M174.6 107.7C174.6 106 175.6 105.4 177.1 105.4H187.3C188.6 105.4 189.5 105.7 189.5 107C189.5 108.3 188.6 108.6 187.3 108.6H178.9V112.3H186.3C187.4 112.3 188.3 112.6 188.3 113.8C188.3 115 187.4 115.3 186.3 115.3H178.9V119.5H187.5C188.8 119.5 189.7 119.8 189.7 121.1C189.7 122.4 188.8 122.7 187.5 122.7H177.1C175.6 122.7 174.6 122.2 174.6 120.4V107.7Z" fill="#00A0A0"/>
<path d="M201.3 105C206.3 105 209 107.8 209 109.5C209 110.6 208.3 111.3 207 111.3C204.5 111.3 205.2 108.2 201.2 108.2C198.5 108.2 196.2 110.3 196.2 114.1C196.2 117.2 197.6 120 201.3 120C204.7 120 204.6 116.7 206.7 116.7C207.8 116.7 208.8 117.2 208.8 118.2C208.8 120.7 205.5 123.1 201.2 123.1C195.2 123.1 191.7 120 191.7 114.1C192 109.1 195.2 105 201.3 105Z" fill="#00A0A0"/>
<path d="M211.8 107C211.8 105.8 212.6 105 214 105C215.3 105 216.2 105.8 216.2 107V111.9H224.1V107C224.1 105.8 224.9 105 226.3 105C227.7 105 228.5 105.8 228.5 107V120.9C228.5 122.1 227.7 122.9 226.3 122.9C224.9 122.9 224.1 122.1 224.1 120.9V115.2H216.2V120.9C216.2 122.1 215.4 122.9 214 122.9C212.7 122.9 211.8 122.1 211.8 120.9V107Z" fill="#00A0A0"/>
<path d="M232.3 107.4C232.3 105.8 233.2 105.1 235 105.1C235.9 105.1 236.7 105.4 237.2 106.1L244.8 117.2H244.9V107C244.9 105.7 245.7 105.1 247 105.1C248.3 105.1 249.1 105.7 249.1 107V120.5C249.1 122.1 248.4 122.9 246.5 122.9C245.1 122.9 244.7 122.6 244.1 121.8L236.5 111.1H236.4V121C236.4 122.3 235.6 122.9 234.3 122.9C233 122.9 232.2 122.3 232.2 121V107.4H232.3Z" fill="#00A0A0"/>
<path d="M261.8 105C268.1 105 271.4 108.7 271.4 113.8C271.4 118.6 268.3 123 261.8 123C255 123 252.2 119 252.2 113.8C252.1 108.7 255.5 105 261.8 105ZM261.8 119.8C265.7 119.8 267.1 117 267.1 113.7C267.1 110.4 265.4 108.1 261.8 108.1C258.2 108.1 256.5 110.4 256.5 113.7C256.5 117 257.7 119.8 261.8 119.8Z" fill="#00A0A0"/>
<path d="M274.6 107C274.6 105.8 275.4 105 276.8 105C278.1 105 279 105.8 279 107V119.3H286.3C287.5 119.3 288.6 119.9 288.6 120.9C288.6 122 287.6 122.5 286.3 122.5H277.2C275.7 122.5 274.7 122 274.7 120.2V107H274.6Z" fill="#00A0A0"/>
<path d="M299.6 105C305.9 105 309.2 108.7 309.2 113.8C309.2 118.6 306.1 123 299.6 123C292.8 123 290 119 290 113.8C290 108.7 293.4 105 299.6 105ZM299.6 119.8C303.5 119.8 304.9 117 304.9 113.7C304.9 110.4 303.1 108.1 299.6 108.1C296 108.1 294.3 110.4 294.3 113.7C294.3 117 295.5 119.8 299.6 119.8Z" fill="#00A0A0"/>
<path d="M330.1 121.6C330.1 122.3 329.5 122.9 328.6 122.9C327.4 122.9 327 122.2 326.7 120.7C325.5 122.1 323.7 123 321 123C314.3 123 311.7 118.8 311.7 114C311.7 108.2 315.7 105 321.6 105C326.4 105 329 107.6 329 109.1C329 110.5 327.9 110.8 327 110.8C324.9 110.8 325.6 108.1 321.4 108.1C318.4 108.1 316 109.9 316 114.2C316 117.6 317.9 119.9 321.4 119.9C323.7 119.9 325.7 118.5 325.9 116.4H323.1C322.2 116.4 321.1 116.1 321.1 114.9C321.1 113.9 321.7 113.4 322.8 113.4H328.2C329.5 113.4 330 114 330 115V121.6H330.1Z" fill="#00A0A0"/>
<path d="M334 107C334 105.8 334.8 105 336.2 105C337.6 105 338.4 105.8 338.4 107V120.9C338.4 122.1 337.6 122.9 336.2 122.9C334.8 122.9 334 122.1 334 120.9V107Z" fill="#00A0A0"/>
<path d="M342.5 107.7C342.5 106 343.5 105.4 345 105.4H355.2C356.5 105.4 357.4 105.7 357.4 107C357.4 108.3 356.5 108.6 355.2 108.6H346.8V112.3H354.2C355.3 112.3 356.2 112.6 356.2 113.8C356.2 115 355.3 115.3 354.2 115.3H346.8V119.5H355.4C356.7 119.5 357.6 119.8 357.6 121.1C357.6 122.4 356.7 122.7 355.4 122.7H345C343.5 122.7 342.5 122.2 342.5 120.4V107.7Z" fill="#00A0A0"/>
<path d="M370.5 112.6C374.5 113.4 375.5 115.5 375.5 117.5C375.5 120.6 372.9 122.9 367.7 122.9C362.2 122.9 359.7 120.4 359.7 118.6C359.7 117.6 360.5 117 361.5 117C363.9 117 363.2 120.1 367.6 120.1C369.9 120.1 371.1 119 371.1 117.8C371.1 117.1 370.7 116.3 369.2 116L364.3 114.9C360.4 114 359.6 112 359.6 110.2C359.6 106.4 363.5 104.9 367.2 104.9C370.6 104.9 374.6 106.6 374.6 108.9C374.6 109.9 373.7 110.5 372.6 110.5C370.6 110.5 371 107.9 366.9 107.9C364.9 107.9 363.8 108.7 363.8 109.9C363.8 111.1 365.4 111.5 366.8 111.8L370.5 112.6Z" fill="#00A0A0"/>
<path d="M68.6002 0.499988C33.8002 -1.40001 3.9002 24.6 0.500204 59C2.8002 42.8 17.1002 30.8 33.7002 31.7C51.2002 32.6 64.7002 47.6 63.7002 65.2C62.8002 82.7 47.8002 96.2 30.2002 95.2C13.7002 94.3 0.800204 80.8 0.200204 64.5C-0.199796 99.1 26.7002 128.1 61.5002 130C97.3002 131.9 127.8 104.5 129.8 68.8C131.8 33 104.3 2.39999 68.6002 0.499988Z" fill="url(#paint0_linear_211_727)"/>
<path d="M53.7999 13.8C26.3999 12.4 2.89993 32.9 0.499926 60C2.29993 43.3 16.8999 30.8 33.7999 31.7C51.2999 32.6 64.7999 47.6 63.7999 65.2C62.8999 82.7 47.8999 96.2 30.2999 95.2C13.2999 94.3 0.199926 80.2 0.199926 63.5C-0.400074 90.7 20.7999 113.7 48.1999 115.2C76.1999 116.7 100.1 95.3 101.6 67.3C103.2 39.3 81.6999 15.4 53.7999 13.8Z" fill="#CAC9C9"/>
<path d="M101.3 70.3C101.3 70.5 101.2 70.8 101.2 71C101.2 71.3 101.1 71.7 101.1 72C101.1 72.3 101 72.5 101 72.8C100.9 73.2 100.9 73.6 100.8 74C100.8 74.2 100.7 74.4 100.7 74.5C100.5 75.7 100.2 76.9 99.7998 78C99.7998 78.2 99.6998 78.3 99.6998 78.5C99.5998 78.7 99.5998 78.9 99.4998 79.1C99.3998 79.3 99.3998 79.5 99.2998 79.7C99.1998 80 99.0998 80.2 98.9998 80.5C98.8998 80.8 98.7998 81 98.6998 81.3C98.4998 81.8 98.2998 82.4 98.0998 82.9C97.8998 83.4 97.6998 84 97.3998 84.5C97.2998 84.7 97.1998 84.9 97.0998 85.2C96.9998 85.5 96.7998 85.8 96.6998 86.1C96.5998 86.4 96.4998 86.6 96.2998 86.9C96.1998 87.2 95.9998 87.4 95.8998 87.7C95.7998 88 95.5998 88.2 95.4998 88.5C94.6998 90 93.7998 91.4 92.8998 92.8C92.7998 93 92.5998 93.2 92.3998 93.5C91.5998 94.7 90.6998 95.8 89.7998 96.9C89.5998 97.1 89.3998 97.3 89.2998 97.5C89.0998 97.7 88.8998 98 88.6998 98.2C88.4998 98.4 88.3998 98.5 88.1998 98.7C87.7998 99.2 87.2998 99.6 86.8998 100.1C86.6998 100.3 86.3998 100.6 86.1998 100.8C85.3998 101.6 84.4998 102.4 83.6998 103.1C83.4998 103.3 83.1998 103.5 82.9998 103.7C81.9998 104.5 80.8998 105.4 79.7998 106.1C79.5998 106.2 79.3998 106.4 79.1998 106.5C78.8998 106.7 78.5998 106.9 78.2998 107.1C77.9998 107.3 77.7998 107.4 77.4998 107.6C77.2998 107.7 77.1998 107.8 77.0998 107.9C76.8998 108 76.7998 108.1 76.5998 108.2C76.4998 108.3 76.3998 108.3 76.2998 108.4C75.8998 108.6 75.3998 108.9 74.9998 109.1C73.5998 109.9 72.0998 110.6 70.5998 111.2C70.2998 111.3 69.9998 111.5 69.6998 111.6C69.1998 111.8 68.6998 112 68.1998 112.2C67.7998 112.4 67.3998 112.5 66.9998 112.6C66.3998 112.8 65.7998 113 65.0998 113.2C64.7998 113.3 64.4998 113.4 64.1998 113.5C64.0998 113.5 63.8998 113.6 63.7998 113.6C63.6998 113.6 63.5998 113.6 63.4998 113.7C63.3998 113.7 63.2998 113.7 63.1998 113.8C62.8998 113.9 62.4998 114 62.1998 114C62.0998 114 61.9998 114 61.8998 114.1C61.1998 114.2 60.5998 114.4 59.8998 114.5C59.5998 114.5 59.3998 114.6 59.0998 114.6C58.5998 114.7 58.0998 114.8 57.5998 114.8C57.1998 114.8 56.7998 114.9 56.3998 114.9C55.9998 114.9 55.5998 115 55.2998 115C54.7998 115 54.2998 115.1 53.6998 115.1C53.3998 115.1 53.1998 115.1 52.8998 115.1C52.2998 115.1 51.5998 115.1 50.9998 115.1C50.8998 115.1 50.6998 115.1 50.5998 115.1C49.7998 115.1 49.0998 115.1 48.2998 115H48.1998C47.3998 115 46.5998 114.9 45.8998 114.8C45.7998 114.8 45.5998 114.8 45.4998 114.8C44.8998 114.7 44.1998 114.6 43.5998 114.5C43.2998 114.5 43.0998 114.4 42.7998 114.4C42.2998 114.3 41.7998 114.2 41.2998 114.1C40.8998 114 40.4998 114 40.1998 113.9C39.7998 113.8 39.3998 113.7 38.9998 113.6C38.4998 113.5 37.9998 113.3 37.4998 113.2C37.1998 113.1 36.9998 113.1 36.6998 113C36.0998 112.8 35.3998 112.6 34.7998 112.4C34.6998 112.4 34.5998 112.3 34.4998 112.3C34.1998 112.2 33.8998 112.1 33.4998 112C33.3998 112 33.2998 111.9 33.1998 111.9C33.0998 111.9 32.9998 111.8 32.9998 111.8C32.8998 111.7 32.7998 111.7 32.5998 111.7C32.2998 111.6 31.9998 111.5 31.6998 111.3C31.0998 111.1 30.4998 110.8 29.8998 110.5C29.4998 110.3 28.9998 110.1 28.5998 109.9C28.1998 109.7 27.6998 109.5 27.2998 109.2C26.9998 109 26.6998 108.9 26.3998 108.7C25.6998 108.3 24.9998 107.9 24.2998 107.5C24.0998 107.4 23.8998 107.2 23.5998 107.1C23.2998 106.9 23.0998 106.8 22.7998 106.6C22.0998 106.1 21.3998 105.7 20.6998 105.2C19.8998 104.6 19.0998 104 18.2998 103.3C18.0998 103.1 17.8998 103 17.7998 102.8C17.4998 102.6 17.1998 102.3 16.9998 102.1C16.7998 101.9 16.4998 101.7 16.2998 101.5C15.9998 101.3 15.7998 101 15.5998 100.8C15.3998 100.6 15.1998 100.4 14.9998 100.2C14.7998 100 14.4998 99.7 14.2998 99.5C13.1998 98.3 12.1998 97.1 11.1998 95.9C10.9998 95.6 10.7998 95.4 10.5998 95.1C10.3998 94.8 10.1998 94.6 9.9998 94.3C9.7998 94 9.5998 93.8 9.3998 93.5C9.1998 93 8.9998 92.8 8.8998 92.5C8.6998 92.2 8.4998 92 8.3998 91.7C7.6998 90.6 7.0998 89.5 6.3998 88.4C6.1998 88.1 6.0998 87.8 5.8998 87.5C5.7998 87.3 5.6998 87.1 5.5998 86.9C4.9998 85.8 4.4998 84.6 3.9998 83.4C3.8998 83.1 3.7998 82.9 3.6998 82.6C3.5998 82.3 3.4998 82.1 3.3998 81.8C2.7998 80.1 2.1998 78.4 1.7998 76.7C1.6998 76.4 1.5998 76.1 1.5998 75.7C1.4998 75.4 1.3998 75 1.3998 74.7C1.2998 74.4 1.2998 74.1 1.1998 73.8C1.0998 73.5 1.0998 73.1 0.999805 72.8C0.799805 71.6 0.599805 70.3 0.499805 69.1C0.499805 68.9 0.499805 68.7 0.499805 68.5C0.499805 68.3 0.499805 68 0.399805 67.8C0.399805 67.5 0.399805 67.3 0.399805 67C0.399805 66.8 0.399805 66.7 0.399805 66.5C0.399805 65.9 0.399805 65.3 0.299805 64.7C0.299805 63.6 0.299805 62.5 0.399805 61.4C0.499805 60.3 0.599805 59.2 0.699805 58.1C3.1998 42.2 17.3998 30.5 33.7998 31.4C40.8998 31.8 47.2998 34.5 52.3998 38.7C44.2998 44.1 38.7998 53.1 38.1998 63.5C37.5998 73.9 42.1998 83.5 49.5998 89.7C54.6998 93.9 61.0998 96.6 68.1998 97C84.5998 97.9 98.7998 86.2 101.3 70.3Z" fill="url(#paint1_linear_211_727)"/>
<path d="M101.6 67C101.5 68.1 101.4 69.2 101.3 70.3C98.7996 86.2 84.5996 97.9 68.1996 97C61.0996 96.6 54.6996 93.9 49.5996 89.7C57.6996 84.3 63.1996 75.3 63.7996 64.9C64.3996 54.5 59.7996 44.9 52.3996 38.7C47.2996 34.5 40.8996 31.8 33.7996 31.4C17.2996 30.6 3.09961 42.3 0.599609 58.2C2.69961 40.6 13.7996 25.9 28.8996 18.6C28.8996 18.6 28.9996 18.6 28.9996 18.5C29.4996 18.3 29.8996 18.1 30.3996 17.8C30.6996 17.7 30.9996 17.5 31.2996 17.4C32.1996 17 32.9996 16.7 33.8996 16.4C34.1996 16.3 34.4996 16.2 34.7996 16.1C34.8996 16.1 34.9996 16 35.0996 16C35.6996 15.8 36.1996 15.6 36.7996 15.5C37.0996 15.4 37.3996 15.3 37.6996 15.2C37.7996 15.2 37.9996 15.1 38.0996 15.1C38.5996 15 39.0996 14.8 39.5996 14.7L39.8996 14.6C40.5996 14.5 41.1996 14.3 41.8996 14.2C42.1996 14.2 42.3996 14.1 42.6996 14.1C43.1996 14 43.6996 13.9 44.1996 13.9C44.5996 13.8 44.9996 13.8 45.3996 13.8C45.7996 13.8 46.1996 13.7 46.4996 13.7C46.9996 13.7 47.4996 13.6 48.0996 13.6C48.3996 13.6 48.5996 13.6 48.8996 13.6C49.4996 13.6 50.1996 13.6 50.7996 13.6C50.8996 13.6 51.0996 13.6 51.1996 13.6C51.9996 13.6 52.6996 13.6 53.4996 13.7H53.5996C54.3996 13.7 55.1996 13.8 55.8996 13.9C55.9996 13.9 56.1996 13.9 56.2996 13.9C56.8996 14 57.5996 14.1 58.1996 14.2C58.4996 14.2 58.6996 14.3 58.9996 14.3C59.4996 14.4 59.9996 14.5 60.4996 14.6C60.8996 14.7 61.2996 14.7 61.5996 14.8C61.9996 14.9 62.3996 15 62.7996 15.1C63.2996 15.2 63.7996 15.4 64.2996 15.5C64.5996 15.6 64.7996 15.6 65.0996 15.7C65.6996 15.9 66.3996 16.1 66.9996 16.3L67.2996 16.4C67.7996 16.6 68.2996 16.7 68.7996 16.9C68.8996 16.9 68.9996 17 69.1996 17C69.4996 17.1 69.7996 17.2 70.0996 17.4C70.6996 17.6 71.1996 17.9 71.6996 18.1C71.7996 18.1 71.8996 18.2 71.9996 18.2C72.2996 18.3 72.5996 18.5 72.8996 18.6C73.6996 19 74.5996 19.4 75.3996 19.9C75.6996 20.1 75.9996 20.2 76.1996 20.4C76.6996 20.7 77.0996 20.9 77.4996 21.2C77.4996 21.2 77.5996 21.2 77.5996 21.3C91.8996 30.2 101.3 46 101.4 63.8C101.7 64.8 101.6 65.9 101.6 67Z" fill="url(#paint2_radial_211_727)"/>
<path d="M101.2 70.5C101.2 70.7 101.1 71 101.1 71.2C101.1 71.5 101 71.9 101 72.2C101 72.5 100.9 72.7 100.9 73C100.8 73.4 100.8 73.8 100.7 74.2C100.7 74.4 100.6 74.6 100.6 74.7C100.4 75.9 100.1 77.1 99.7002 78.2C99.7002 78.4 99.6002 78.5 99.6002 78.7C99.5002 78.9 99.5002 79.1 99.4002 79.3C99.3002 79.5 99.3002 79.7 99.2002 79.9C99.1002 80.2 99.0002 80.4 98.9002 80.7C98.8002 81 98.7002 81.2 98.6002 81.5C98.4002 82 98.2002 82.6 98.0002 83.1C97.8002 83.6 97.6002 84.2 97.3002 84.7C97.2002 84.9 97.1002 85.1 97.0002 85.4C96.9002 85.7 96.7002 86 96.6002 86.3C96.5002 86.6 96.4002 86.8 96.3002 87.1C96.2002 87.4 96.1002 87.6 95.9002 87.8C95.8002 88.1 95.6002 88.3 95.5002 88.6C94.7002 90.1 93.9002 91.5 93.0002 92.9C92.9002 93.1 92.7002 93.3 92.5002 93.5C91.7002 94.7 90.8002 95.8 89.9002 96.9C89.7002 97.1 89.5002 97.3 89.4002 97.5C89.2002 97.7 89.0002 98 88.8002 98.2C88.6002 98.4 88.5002 98.5 88.3002 98.7C87.9002 99.2 87.4002 99.6 87.0002 100.1C86.8002 100.3 86.5002 100.6 86.3002 100.8C85.5002 101.6 84.8002 102.1 84.0002 102.9C83.8002 103.1 83.2002 103.5 83.0002 103.7C82.0002 104.5 80.8002 105.3 79.7002 106.1C79.5002 106.2 79.3002 106.4 79.1002 106.5C78.8002 106.7 78.5002 106.9 78.2002 107.1C77.9002 107.3 77.7002 107.4 77.4002 107.6C77.2002 107.7 77.1002 107.8 77.0002 107.9C76.8002 108 76.7002 108.1 76.5002 108.2C76.4002 108.3 76.3002 108.3 76.2002 108.4C75.8002 108.6 75.3002 108.9 74.9002 109.1C73.5002 109.9 72.0002 110.6 70.5002 111.2C70.2002 111.3 69.9002 111.5 69.6002 111.6C69.1002 111.8 68.6002 112 68.1002 112.2C67.7002 112.4 67.3002 112.5 66.9002 112.6C66.3002 112.8 65.7002 113 65.0002 113.2C64.7002 113.3 64.4002 113.4 64.1002 113.5C64.0002 113.5 63.8002 113.6 63.7002 113.6C63.6002 113.6 63.5002 113.6 63.4002 113.7C63.3002 113.7 63.2002 113.7 63.1002 113.8C62.8002 113.9 62.4002 114 62.1002 114C62.0002 114 61.9002 114 61.8002 114.1C61.1002 114.2 60.5002 114.4 59.8002 114.5C59.5002 114.5 59.3002 114.6 59.0002 114.6C58.5002 114.7 58.0002 114.8 57.5002 114.8C57.1002 114.8 56.7002 114.9 56.3002 114.9C55.9002 114.9 55.5002 115 55.2002 115C54.7002 115 54.2002 115.1 53.6002 115.1C53.3002 115.1 53.1002 115.1 52.8002 115.1C52.2002 115.1 51.5002 115.1 50.9002 115.1C50.8002 115.1 50.6002 115.1 50.5002 115.1C49.7002 115.1 49.0002 115.1 48.2002 115H48.1002C47.3002 115 46.5002 114.9 45.8002 114.8C45.7002 114.8 45.5002 114.8 45.4002 114.8C44.8002 114.7 44.1002 114.6 43.5002 114.5C43.2002 114.5 43.0002 114.4 42.7002 114.4C42.2002 114.3 41.7002 114.2 41.2002 114.1C40.8002 114 40.4002 114 40.1002 113.9C39.7002 113.8 39.3002 113.7 38.9002 113.6C38.4002 113.5 37.9002 113.3 37.4002 113.2C37.1002 113.1 36.9002 113.1 36.6002 113C36.0002 112.8 35.3002 112.6 34.7002 112.4C34.6002 112.4 34.5002 112.3 34.4002 112.3C34.1002 112.2 33.8002 112.1 33.5002 112C33.4002 112 33.3002 111.9 33.2002 111.9C33.1002 111.9 33.0002 111.8 33.0002 111.8C32.9002 111.7 32.8002 111.7 32.6002 111.7C32.3002 111.6 32.0002 111.5 31.7002 111.3C31.1002 111.1 30.5002 110.8 29.9002 110.5C29.5002 110.3 29.0002 110.1 28.6002 109.9C28.2002 109.7 27.7002 109.5 27.3002 109.2C27.0002 109 26.7002 108.9 26.4002 108.7C25.7002 108.3 25.0002 107.9 24.3002 107.5C24.1002 107.4 23.9002 107.2 23.6002 107.1C23.3002 106.9 23.1002 106.8 22.8002 106.6C22.1002 106.1 21.4002 105.7 20.7002 105.2C19.9002 104.6 19.1002 104 18.3002 103.3C18.1002 103.1 17.9002 103 17.8002 102.8C17.5002 102.6 17.2002 102.3 17.0002 102.1C16.8002 101.9 16.5002 101.7 16.3002 101.5C16.0002 101.3 15.8002 101 15.6002 100.8C15.4002 100.6 15.2002 100.4 15.0002 100.2C14.8002 100 14.5002 99.7 14.3002 99.5C13.2002 98.3 12.2002 97.1 11.2002 95.9C11.0002 95.6 10.8002 95.4 10.6002 95.1C10.4002 94.8 10.2002 94.6 10.0002 94.3C9.8002 94 9.6002 93.8 9.4002 93.5C9.2002 93.2 9.0002 93 8.9002 92.7C8.7002 92.4 8.5002 92.2 8.4002 91.9C7.7002 90.8 7.1002 89.7 6.4002 88.6C6.2002 88.3 6.0002 88 5.9002 87.7C5.8002 87.5 5.7002 87.3 5.6002 87.1C5.0002 85.9 4.5002 84.8 4.0002 83.6C3.9002 83.3 3.8002 83.1 3.7002 82.8C3.6002 82.5 3.5002 82.3 3.4002 82C2.8002 80.3 2.2002 78.6 1.8002 76.9C1.7002 76.6 1.6002 76.3 1.6002 75.9C1.5002 75.6 1.4002 75.2 1.4002 74.9C1.3002 74.6 1.3002 74.3 1.2002 74C1.0002 73.6 1.0002 73.3 0.900195 73C0.700195 71.8 0.500195 70.5 0.400195 69.3C0.400195 69.1 0.400195 68.9 0.400195 68.7C0.400195 68.5 0.400195 68.2 0.300195 68C0.300195 67.7 0.300195 67.5 0.300195 67.2C0.300195 67 0.300195 66.9 0.300195 66.7C0.300195 66.1 0.300195 65.5 0.200195 64.9C0.200195 63.8 0.200195 62.7 0.300195 61.6C0.400195 60.5 0.500195 59.4 0.600195 58.3C3.1002 42.4 17.3002 30.7 33.7002 31.6C40.8002 32 47.2002 34.7 52.3002 38.9C44.2002 44.3 38.8002 53.3 38.2002 63.7C37.6002 74.1 42.3002 83.5 49.7002 89.7C54.8002 93.9 61.0002 96.8 68.1002 97.1C84.5002 98.1 98.7002 86.3 101.2 70.5Z" fill="url(#paint3_radial_211_727)"/>
<path d="M84.5 102.5C83.5 103.4 82.4 104.2 81.3 104.9C81.1 105 80.9 105.2 80.7 105.3C80.4 105.5 80.1 105.7 79.8 105.9C79.5 106.1 79.3 106.2 79 106.4C78.8 106.5 78.7 106.6 78.6 106.7C78.4 106.8 78.3 106.9 78.1 107C78 107.1 77.9 107.1 77.8 107.2C77.4 107.4 76.9 107.7 76.5 107.9C75.1 108.7 73.6 109.4 72.1 110C71.8 110.1 71.5 110.3 71.2 110.4C70.7 110.6 70.2 110.8 69.7 111C69.3 111.2 68.9 111.3 68.5 111.4C67.9 111.6 67.3 111.8 66.6 112C66.3 112.1 66 112.2 65.7 112.3C65.6 112.3 65.4 112.4 65.3 112.4C65.2 112.4 65.1 112.4 65 112.5C64.9 112.5 64.8 112.5 64.7 112.6C64.4 112.7 64 112.8 63.7 112.8C63.6 112.8 63.5 112.8 63.4 112.9C62.7 113 62.1 113.2 61.4 113.3C61.1 113.3 60.9 113.4 60.6 113.4C60.1 113.5 59.6 113.6 59 113.6C58.6 113.6 58.2 113.7 57.8 113.7C57.4 113.7 57 113.8 56.6 113.8C56.1 113.8 55.6 113.9 55 113.9C54.7 113.9 54.5 113.9 54.2 113.9C53.5 113.9 52.9 113.9 52.2 113.9C52.1 113.9 51.9 113.9 51.8 113.9C51 113.9 50.2 113.9 49.5 113.8H49.4C48.6 113.8 47.8 113.7 47.1 113.6C47 113.6 46.8 113.6 46.7 113.6C46 113.5 45.4 113.4 44.8 113.3C44.5 113.3 44.3 113.2 44 113.2C43.5 113.1 43 113 42.4 112.9C42 112.8 41.6 112.8 41.3 112.7C40.9 112.6 40.5 112.5 40.1 112.4C39.6 112.3 39.1 112.1 38.6 112C38.3 111.9 38.1 111.9 37.8 111.8C37.2 111.6 36.5 111.4 35.9 111.2C35.8 111.2 35.7 111.1 35.6 111.1C35.3 111 35 110.9 34.6 110.8C34.5 110.8 34.4 110.7 34.3 110.7C34.2 110.7 34.1 110.6 34 110.6C33.9 110.5 33.7 110.5 33.6 110.5C33.3 110.4 33 110.3 32.7 110.1C32.1 109.9 31.5 109.6 30.9 109.3C30.5 109.1 30 108.9 29.6 108.7C29.2 108.5 28.7 108.3 28.3 108C28 107.8 27.7 107.7 27.4 107.5C26.7 107.1 26 106.7 25.3 106.3C25.1 106.2 24.8 106 24.6 105.9C24.3 105.7 24.1 105.6 23.8 105.4C23.1 104.9 22.4 104.4 21.7 103.9C20.9 103.3 20 102.6 19.3 102C19.1 101.8 18.9 101.7 18.8 101.5C18.5 101.3 18.2 101 18 100.8C17.8 100.6 17.5 100.4 17.3 100.1C17 99.9 16.8 99.6 16.6 99.4C16.4 99.2 16.2 99 16 98.8C15.8 98.6 15.5 98.3 15.3 98.1C14.2 96.9 13.1 95.7 12.2 94.5C12 94.2 11.8 94 11.6 93.7C11.4 93.4 11.2 93.2 11 92.9C10.8 92.6 10.6 92.4 10.4 92.1C10.2 91.8 10 91.6 9.9 91.3C9.7 91 9.5 90.8 9.4 90.5C8.7 89.4 8 88.3 7.4 87.2C7.2 86.9 7.1 86.6 6.9 86.3C7 86.2 6.9 86 6.8 85.8C6.2 84.6 5.7 83.4 5.2 82.2C5.1 81.9 5 81.7 4.9 81.4C4.8 81.1 4.7 80.9 4.6 80.6C4 78.9 3.4 77.2 3 75.4C2.9 75.1 2.8 74.8 2.8 74.4C2.7 74.1 2.6 73.7 2.6 73.4C2.5 73.1 2.5 72.8 2.4 72.5C2.3 72.2 2.3 71.8 2.2 71.5C2 70.3 1.8 69 1.7 67.8C1.7 67.6 1.7 67.4 1.7 67.2C1.7 67 1.7 66.7 1.6 66.5C1.6 66.2 1.6 66 1.6 65.7C1.6 65.5 1.6 65.4 1.6 65.2C1.6 64.6 1.6 64 1.5 63.4C1.5 62.3 1.5 61.2 1.6 60.1C1.7 59 1.8 57.9 1.9 56.8C3 49.7 8.1 42.5 13 37.8C6.8 42.3 1.6 50.4 0.4 58.1C0.3 59.2 0.2 60.3 0.1 61.4C0 62.6 0 63.7 0 64.8C0 65.4 0 66 0.1 66.6C0.1 66.8 0.1 66.9 0.1 67.1C0.1 67.4 0.1 67.6 0.1 67.9C0.1 68.1 0.1 68.4 0.2 68.6C0.2 68.8 0.2 69 0.2 69.2C0.3 70.5 0.5 71.7 0.7 72.9C0.8 73.2 0.8 73.6 0.9 73.9C1 74.1 1 74.4 1.1 74.8C1.2 75.1 1.2 75.5 1.3 75.8C1.4 76.1 1.5 76.4 1.5 76.8C1.9 78.6 2.5 80.3 3.1 82C3.2 82.3 3.3 82.5 3.4 82.8C3.5 83.1 3.6 83.3 3.7 83.6C4.2 84.8 4.7 86 5.3 87.2C5.4 87.4 5.5 87.6 5.6 87.8C5.8 88 6 88.2 6.1 88.5C6.7 89.6 7.4 90.7 8.1 91.8C8.3 92.1 8.5 92.3 8.6 92.6C8.8 92.9 9 93.1 9.1 93.4C9.3 93.7 9.5 93.9 9.7 94.2C9.9 94.5 10.1 94.7 10.3 95C10.5 95.3 10.7 95.5 10.9 95.8C11.9 97.1 12.9 98.3 14 99.4C14.2 99.6 14.4 99.9 14.7 100.1C14.9 100.3 15.1 100.5 15.3 100.7C15.5 100.9 15.8 101.2 16 101.4C16.2 101.6 16.5 101.8 16.7 102.1C17 102.4 17.3 102.6 17.5 102.8C17.7 103 17.9 103.1 18 103.3C18.8 104 19.6 104.6 20.4 105.2C21.1 105.7 21.8 106.2 22.5 106.7C22.8 106.9 23 107 23.3 107.2C23.5 107.3 23.7 107.5 24 107.6C24.7 108 25.4 108.4 26.1 108.8C26.4 109 26.7 109.1 27 109.3C27.4 109.5 27.9 109.8 28.3 110C28.7 110.2 29.2 110.4 29.6 110.6C30.2 110.9 30.8 111.1 31.4 111.4C31.7 111.5 32 111.6 32.3 111.8C32.4 111.8 32.5 111.9 32.7 111.9C32.8 111.9 32.9 112 33 112C33.1 112 33.2 112.1 33.3 112.1C33.6 112.2 33.9 112.3 34.3 112.4C34.4 112.4 34.5 112.5 34.6 112.5C35.2 112.7 35.9 112.9 36.5 113.1C36.8 113.2 37 113.2 37.3 113.3C37.8 113.4 38.3 113.6 38.8 113.7C39.2 113.8 39.6 113.9 40 114C40.4 114.1 40.8 114.2 41.1 114.2C41.6 114.3 42.1 114.4 42.7 114.5C43 114.5 43.2 114.6 43.5 114.6C44.1 114.7 44.8 114.8 45.4 114.9C45.5 114.9 45.7 114.9 45.8 114.9C46.6 115 47.3 115 48.1 115.1H48.2C49 115.1 49.8 115.2 50.5 115.2C50.6 115.2 50.8 115.2 50.9 115.2C51.6 115.2 52.2 115.2 52.9 115.2C53.2 115.2 53.4 115.2 53.7 115.2C54.2 115.2 54.8 115.1 55.3 115.1C55.7 115.1 56.1 115 56.5 115C56.9 115 57.3 114.9 57.7 114.9C58.2 114.8 58.7 114.8 59.3 114.7C59.6 114.7 59.8 114.6 60.1 114.6C60.8 114.5 61.4 114.3 62.1 114.2C62.2 114.2 62.3 114.1 62.4 114.1C62.7 114 63.1 113.9 63.4 113.9C63.5 113.9 63.6 113.9 63.7 113.8C63.8 113.8 63.9 113.8 64 113.7C64.1 113.7 64.3 113.6 64.4 113.6C64.7 113.5 65 113.4 65.3 113.3C65.9 113.1 66.6 112.9 67.2 112.7C67.6 112.6 68 112.4 68.4 112.3C68.9 112.1 69.4 111.9 69.9 111.7C70.2 111.6 70.5 111.5 70.8 111.3C72.3 110.7 73.8 110 75.2 109.2C75.6 109 76.1 108.7 76.5 108.5C76.6 108.5 76.7 108.4 76.8 108.3C77 108.2 77.1 108.1 77.3 108C77.4 107.9 77.6 107.8 77.7 107.7C78 107.5 78.2 107.4 78.5 107.2C78.8 107 79.1 106.8 79.4 106.6C79.6 106.5 79.8 106.3 80 106.2C81.1 105.4 82.2 104.6 83.2 103.8C83.4 103.6 83.7 103.4 83.9 103.2C84.5 102.7 85.1 102.1 85.7 101.6C85.6 101.7 85.4 101.8 85.3 101.9C85 102.1 84.7 102.3 84.5 102.5Z" fill="url(#paint4_radial_211_727)"/>
<path d="M64.8998 63.8C65.4998 53.4 60.8998 43.8 53.4998 37.6C48.3998 33.4 41.9998 30.7 34.8998 30.3C25.7998 29.8 17.3998 33.4 11.2998 39.2C17.2998 34.1 25.0998 31.1 33.4998 31.5C40.5998 31.9 46.9998 34.6 52.0998 38.8C59.5998 45 64.0998 54.5 63.4998 65C62.9998 73.5 59.2998 81 53.5998 86.4C60.0998 81 64.3998 73 64.8998 63.8Z" fill="url(#paint5_radial_211_727)"/>
<path d="M102.3 66.7C103.8 38.7 82.2002 14.8 54.1002 13.3C36.0002 12.3 19.5002 20.9 9.7002 34.6C19.7002 22 35.4002 14.3 52.6002 15.2C80.8002 16.7 102.3 40.7 100.8 68.6C100.3 78.6 96.8002 87.6 91.3002 95.2C97.7002 87.3 101.7 77.5 102.3 66.7Z" fill="url(#paint6_linear_211_727)"/>
<path d="M49.6001 89.6C49.6001 89.6 50.3001 90.2 51.7001 91.1C53.1001 92 55.1001 93.2 57.7001 94.2C60.3001 95.3 63.4001 96.2 66.9001 96.5C70.3001 96.9 74.1001 96.6 77.6001 95.7C79.4001 95.2 81.1001 94.7 82.8001 94C84.4001 93.3 86.0001 92.3 87.4001 91.3C88.8001 90.3 90.1001 89.2 91.3001 88.2C92.5001 87.1 93.5001 86 94.4001 85C96.2001 82.9 97.5001 80.9 98.3001 79.5C99.1001 78.1 99.5001 77.2 99.5001 77.2C99.5001 77.2 99.4001 77.4 99.3001 77.8C99.1001 78.2 98.9001 78.8 98.5001 79.6C97.8001 81.1 96.7001 83.2 94.9001 85.4C93.2001 87.6 90.9001 90.1 88.0001 92.2C86.5001 93.2 85.0001 94.3 83.2001 95C81.5001 95.8 79.7001 96.4 77.8001 96.9C74.1001 97.8 70.2001 98 66.7001 97.6C64.9001 97.4 63.2001 97 61.7001 96.5C60.1001 96 58.7001 95.5 57.4001 94.9C54.8001 93.7 52.9001 92.3 51.6001 91.3C50.3001 90.3 49.6001 89.6 49.6001 89.6Z" fill="url(#paint7_radial_211_727)"/>
</g>
<defs>
<linearGradient id="paint0_linear_211_727" x1="87.1627" y1="19.9341" x2="39.0356" y2="118.723" gradientUnits="userSpaceOnUse">
<stop stop-color="#2D1852"/>
<stop offset="0.1215" stop-color="#2F2A62"/>
<stop offset="0.5691" stop-color="#0463AD"/>
<stop offset="0.6436" stop-color="#125DA4"/>
<stop offset="0.7442" stop-color="#235092"/>
<stop offset="0.8596" stop-color="#2D3B76"/>
<stop offset="0.9851" stop-color="#2E1D55"/>
<stop offset="1" stop-color="#2D1852"/>
</linearGradient>
<linearGradient id="paint1_linear_211_727" x1="19.7308" y1="43.9031" x2="65.5993" y2="93.1521" gradientUnits="userSpaceOnUse">
<stop stop-color="#2D1852"/>
<stop offset="0.0618919" stop-color="#2F2860"/>
<stop offset="0.1908" stop-color="#2B417E"/>
<stop offset="0.314" stop-color="#205395"/>
<stop offset="0.4278" stop-color="#105EA5"/>
<stop offset="0.5232" stop-color="#0463AD"/>
<stop offset="0.74" stop-color="#2B4380"/>
<stop offset="1" stop-color="#2D1852"/>
</linearGradient>
<radialGradient id="paint2_radial_211_727" cx="0" cy="0" r="1" gradientUnits="userSpaceOnUse" gradientTransform="translate(51.521 54.7836) rotate(3.10133) scale(46.1975 46.1975)">
<stop stop-color="#00A6AD"/>
<stop offset="0.0185694" stop-color="#00A8AD"/>
<stop offset="0.3289" stop-color="#00B9AB"/>
<stop offset="0.4455" stop-color="#00A4AC"/>
<stop offset="0.7139" stop-color="#007BAA"/>
<stop offset="0.9053" stop-color="#0063A6"/>
<stop offset="1" stop-color="#035AA4"/>
</radialGradient>
<radialGradient id="paint3_radial_211_727" cx="0" cy="0" r="1" gradientUnits="userSpaceOnUse" gradientTransform="translate(50.3314 73.8584) rotate(3.10133) scale(46.1975)">
<stop stop-color="#00A6AD"/>
<stop offset="0.2775" stop-color="#00B9AB"/>
<stop offset="0.3591" stop-color="#06B4AB"/>
<stop offset="0.4741" stop-color="#00AAAC"/>
<stop offset="0.6089" stop-color="#009AAD"/>
<stop offset="0.7587" stop-color="#0083AB"/>
<stop offset="0.9192" stop-color="#0069A7"/>
<stop offset="1" stop-color="#035AA4"/>
</radialGradient>
<radialGradient id="paint4_radial_211_727" cx="0" cy="0" r="1" gradientUnits="userSpaceOnUse" gradientTransform="translate(42.7958 76.5527) scale(40.7963 40.7963)">
<stop offset="0.2765" stop-color="#035AA4"/>
<stop offset="0.3264" stop-color="#0069A7"/>
<stop offset="0.4254" stop-color="#0083AB"/>
<stop offset="0.5179" stop-color="#009AAD"/>
<stop offset="0.6012" stop-color="#00AAAC"/>
<stop offset="0.6721" stop-color="#06B4AB"/>
<stop offset="0.7225" stop-color="#00B9AB"/>
<stop offset="0.8541" stop-color="#035AA4"/>
<stop offset="0.8896" stop-color="#0073A9"/>
<stop offset="0.924" stop-color="#0088AC"/>
<stop offset="0.9549" stop-color="#0098AD"/>
<stop offset="0.9813" stop-color="#00A2AE"/>
<stop offset="1" stop-color="#00A6AD"/>
</radialGradient>
<radialGradient id="paint5_radial_211_727" cx="0" cy="0" r="1" gradientUnits="userSpaceOnUse" gradientTransform="translate(38.0795 58.3702) scale(27.4608 27.4608)">
<stop stop-color="#035AA4"/>
<stop offset="0.0808301" stop-color="#0069A7"/>
<stop offset="0.2413" stop-color="#0083AB"/>
<stop offset="0.3911" stop-color="#009AAD"/>
<stop offset="0.5259" stop-color="#00AAAC"/>
<stop offset="0.6409" stop-color="#06B4AB"/>
<stop offset="0.7225" stop-color="#00B9AB"/>
<stop offset="1" stop-color="#00A6AD"/>
</radialGradient>
<linearGradient id="paint6_linear_211_727" x1="9.7321" y1="54.197" x2="102.392" y2="54.197" gradientUnits="userSpaceOnUse">
<stop stop-color="#2D1852"/>
<stop offset="0.1575" stop-color="#2E356F"/>
<stop offset="0.3309" stop-color="#254D8D"/>
<stop offset="0.476" stop-color="#145CA3"/>
<stop offset="0.574" stop-color="#0463AD"/>
<stop offset="0.6505" stop-color="#185A9F"/>
<stop offset="0.7808" stop-color="#294684"/>
<stop offset="0.9482" stop-color="#2F255D"/>
<stop offset="1" stop-color="#2D1852"/>
</linearGradient>
<radialGradient id="paint7_radial_211_727" cx="0" cy="0" r="1" gradientUnits="userSpaceOnUse" gradientTransform="translate(74.6759 87.4083) scale(19.4536 19.4536)">
<stop stop-color="#00A6AD"/>
<stop offset="0.2775" stop-color="#00B9AB"/>
<stop offset="0.3591" stop-color="#06B4AB"/>
<stop offset="0.4741" stop-color="#00AAAC"/>
<stop offset="0.6089" stop-color="#009AAD"/>
<stop offset="0.7587" stop-color="#0083AB"/>
<stop offset="0.9192" stop-color="#0069A7"/>
<stop offset="1" stop-color="#035AA4"/>
</radialGradient>
<clipPath id="clip0_211_727">
<rect width="576.4" height="130.1" fill="white"/>
</clipPath>
</defs>
</svg>
